<svg xmlns="http://www.w3.org/2000/svg" xmlns:xlink="http://www.w3.org/1999/xlink" contentStyleType="text/css" height="983px" preserveAspectRatio="none" style="width:1213px;height:983px;background:#FFFFFF;" version="1.1" viewBox="0 0 1213 983" width="1213px" zoomAndPan="magnify"><defs/><g><!--cluster OEM--><g id="cluster_OEM"><path d="M8.5,6.602 L41.6859,6.602 A3.75,3.75 0 0 1 44.1859,9.102 L51.1859,31.6699 L947.5,31.6699 A2.5,2.5 0 0 1 950,34.1699 L950,404.102 A2.5,2.5 0 0 1 947.5,406.602 L8.5,406.602 A2.5,2.5 0 0 1 6,404.102 L6,9.102 A2.5,2.5 0 0 1 8.5,6.602 " fill="none" style="stroke:#000000;stroke-width:1.5;"/><line style="stroke:#000000;stroke-width:1.5;" x1="6" x2="51.1859" y1="31.6699" y2="31.6699"/><text fill="#000000" font-family="sans-serif" font-size="14" font-weight="bold" lengthAdjust="spacing" textLength="32.1859" x="10" y="23.5679">OEM</text></g><!--cluster CX--><g id="cluster_CX"><path d="M195.5,430.602 L214.7559,430.602 A3.75,3.75 0 0 1 217.2559,433.102 L224.2559,455.6699 L724.5,455.6699 A2.5,2.5 0 0 1 727,458.1699 L727,550.102 A2.5,2.5 0 0 1 724.5,552.602 L195.5,552.602 A2.5,2.5 0 0 1 193,550.102 L193,433.102 A2.5,2.5 0 0 1 195.5,430.602 " fill="none" style="stroke:#000000;stroke-width:1.5;"/><line style="stroke:#000000;stroke-width:1.5;" x1="193" x2="224.2559" y1="455.6699" y2="455.6699"/><text fill="#000000" font-family="sans-serif" font-size="14" font-weight="bold" lengthAdjust="spacing" textLength="18.2559" x="197" y="447.5679">CX</text></g><!--cluster Supplier--><g id="cluster_Supplier"><path d="M265.5,576.602 L324.3058,576.602 A3.75,3.75 0 0 1 326.8058,579.102 L333.8058,601.6699 L1203.5,601.6699 A2.5,2.5 0 0 1 1206,604.1699 L1206,974.102 A2.5,2.5 0 0 1 1203.5,976.602 L265.5,976.602 A2.5,2.5 0 0 1 263,974.102 L263,579.102 A2.5,2.5 0 0 1 265.5,576.602 " fill="none" style="stroke:#000000;stroke-width:1.5;"/><line style="stroke:#000000;stroke-width:1.5;" x1="263" x2="333.8058" y1="601.6699" y2="601.6699"/><text fill="#000000" font-family="sans-serif" font-size="14" font-weight="bold" lengthAdjust="spacing" textLength="57.8058" x="267" y="593.5679">Supplier</text></g><!--entity basyx_dash_cus--><g id="elem_basyx_dash_cus"><rect fill="#F1F1F1" height="49.0679" rx="2.5" ry="2.5" style="stroke:#181818;stroke-width:0.5;" width="155.5836" x="522" y="44.602"/><rect fill="#F1F1F1" height="10" style="stroke:#181818;stroke-width:0.5;" width="15" x="657.5836" y="49.602"/><rect fill="#F1F1F1" height="2" style="stroke:#181818;stroke-width:0.5;" width="4" x="655.5836" y="51.602"/><rect fill="#F1F1F1" height="2" style="stroke:#181818;stroke-width:0.5;" width="4" x="655.5836" y="55.602"/><text fill="#000000" font-family="sans-serif" font-size="14" lengthAdjust="spacing" textLength="115.5836" x="537" y="79.5679">BaSyx Dashboard</text></g><!--entity sm_reg_cus--><g id="elem_sm_reg_cus"><rect fill="#F1F1F1" height="49.0679" rx="2.5" ry="2.5" style="stroke:#181818;stroke-width:0.5;" width="252.3932" x="22" y="143.602"/><rect fill="#F1F1F1" height="10" style="stroke:#181818;stroke-width:0.5;" width="15" x="254.3932" y="148.602"/><rect fill="#F1F1F1" height="2" style="stroke:#181818;stroke-width:0.5;" width="4" x="252.3932" y="150.602"/><rect fill="#F1F1F1" height="2" style="stroke:#181818;stroke-width:0.5;" width="4" x="252.3932" y="154.602"/><text fill="#000000" font-family="sans-serif" font-size="14" lengthAdjust="spacing" textLength="212.3932" x="37" y="178.5679">BaSyx Submodel Registry Server</text></g><!--entity aas_reg_cus--><g id="elem_aas_reg_cus"><rect fill="#F1F1F1" height="49.0679" rx="2.5" ry="2.5" style="stroke:#181818;stroke-width:0.5;" width="211.3454" x="349.5" y="143.602"/><rect fill="#F1F1F1" height="10" style="stroke:#181818;stroke-width:0.5;" width="15" x="540.8454" y="148.602"/><rect fill="#F1F1F1" height="2" style="stroke:#181818;stroke-width:0.5;" width="4" x="538.8454" y="150.602"/><rect fill="#F1F1F1" height="2" style="stroke:#181818;stroke-width:0.5;" width="4" x="538.8454" y="154.602"/><text fill="#000000" font-family="sans-serif" font-size="14" lengthAdjust="spacing" textLength="171.3454" x="364.5" y="178.5679">BaSyx AAS Registry Server</text></g><!--entity aas_dis_cus--><g id="elem_aas_dis_cus"><rect fill="#F1F1F1" height="49.0679" rx="2.5" ry="2.5" style="stroke:#181818;stroke-width:0.5;" width="221.4953" x="635.5" y="143.602"/><rect fill="#F1F1F1" height="10" style="stroke:#181818;stroke-width:0.5;" width="15" x="836.9953" y="148.602"/><rect fill="#F1F1F1" height="2" style="stroke:#181818;stroke-width:0.5;" width="4" x="834.9953" y="150.602"/><rect fill="#F1F1F1" height="2" style="stroke:#181818;stroke-width:0.5;" width="4" x="834.9953" y="154.602"/><text fill="#000000" font-family="sans-serif" font-size="14" lengthAdjust="spacing" textLength="181.4953" x="650.5" y="178.5679">BaSyx AAS Discovery Server</text></g><!--entity aas_env_cus--><g id="elem_aas_env_cus"><rect fill="#F1F1F1" height="49.0679" rx="2.5" ry="2.5" style="stroke:#181818;stroke-width:0.5;" width="242.5932" x="666.5" y="242.602"/><rect fill="#F1F1F1" height="10" style="stroke:#181818;stroke-width:0.5;" width="15" x="889.0932" y="247.602"/><rect fill="#F1F1F1" height="2" style="stroke:#181818;stroke-width:0.5;" width="4" x="887.0932" y="249.602"/><rect fill="#F1F1F1" height="2" style="stroke:#181818;stroke-width:0.5;" width="4" x="887.0932" y="253.602"/><text fill="#000000" font-family="sans-serif" font-size="14" lengthAdjust="spacing" textLength="202.5932" x="681.5" y="277.5679">BaSyx AAS Environment Server</text></g><!--entity nginx_cus--><g id="elem_nginx_cus"><rect fill="#F1F1F1" height="49.0679" rx="2.5" ry="2.5" style="stroke:#181818;stroke-width:0.5;" width="134.4156" x="411" y="242.602"/><rect fill="#F1F1F1" height="10" style="stroke:#181818;stroke-width:0.5;" width="15" x="525.4156" y="247.602"/><rect fill="#F1F1F1" height="2" style="stroke:#181818;stroke-width:0.5;" width="4" x="523.4156" y="249.602"/><rect fill="#F1F1F1" height="2" style="stroke:#181818;stroke-width:0.5;" width="4" x="523.4156" y="253.602"/><text fill="#000000" font-family="sans-serif" font-size="14" lengthAdjust="spacing" textLength="94.4156" x="426" y="277.5679">Proxy Registry</text></g><!--entity edc_cus--><g id="elem_edc_cus"><rect fill="#F1F1F1" height="49.0679" rx="2.5" ry="2.5" style="stroke:#181818;stroke-width:0.5;" width="208.5033" x="505.5" y="341.602"/><rect fill="#F1F1F1" height="10" style="stroke:#181818;stroke-width:0.5;" width="15" x="694.0033" y="346.602"/><rect fill="#F1F1F1" height="2" style="stroke:#181818;stroke-width:0.5;" width="4" x="692.0033" y="348.602"/><rect fill="#F1F1F1" height="2" style="stroke:#181818;stroke-width:0.5;" width="4" x="692.0033" y="352.602"/><text fill="#000000" font-family="sans-serif" font-size="14" lengthAdjust="spacing" textLength="168.5033" x="520.5" y="376.5679">Tractus-X Connector OEM</text></g><!--entity miw--><g id="elem_miw"><rect fill="#F1F1F1" height="68.1358" rx="2.5" ry="2.5" style="stroke:#181818;stroke-width:0.5;" width="201.2654" x="509.5" y="468.602"/><rect fill="#F1F1F1" height="10" style="stroke:#181818;stroke-width:0.5;" width="15" x="690.7654" y="473.602"/><rect fill="#F1F1F1" height="2" style="stroke:#181818;stroke-width:0.5;" width="4" x="688.7654" y="475.602"/><rect fill="#F1F1F1" height="2" style="stroke:#181818;stroke-width:0.5;" width="4" x="688.7654" y="479.602"/><text fill="#000000" font-family="sans-serif" font-size="14" lengthAdjust="spacing" textLength="161.2654" x="524.5" y="503.5679">Managed Identity Wallet</text><text fill="#000000" font-family="sans-serif" font-size="14" lengthAdjust="spacing" textLength="65.3938" x="524.5" y="522.6358">Mock IAM</text></g><!--entity bdrs--><g id="elem_bdrs"><rect fill="#F1F1F1" height="49.0679" rx="2.5" ry="2.5" style="stroke:#181818;stroke-width:0.5;" width="225.4433" x="209.5" y="478.102"/><rect fill="#F1F1F1" height="10" style="stroke:#181818;stroke-width:0.5;" width="15" x="414.9433" y="483.102"/><rect fill="#F1F1F1" height="2" style="stroke:#181818;stroke-width:0.5;" width="4" x="412.9433" y="485.102"/><rect fill="#F1F1F1" height="2" style="stroke:#181818;stroke-width:0.5;" width="4" x="412.9433" y="489.102"/><text fill="#000000" font-family="sans-serif" font-size="14" lengthAdjust="spacing" textLength="185.4433" x="224.5" y="513.0679">BPNL Did Resolution Service</text></g><!--entity sm_reg_sup--><g id="elem_sm_reg_sup"><rect fill="#F1F1F1" height="49.0679" rx="2.5" ry="2.5" style="stroke:#181818;stroke-width:0.5;" width="252.3932" x="356" y="812.602"/><rect fill="#F1F1F1" height="10" style="stroke:#181818;stroke-width:0.5;" width="15" x="588.3932" y="817.602"/><rect fill="#F1F1F1" height="2" style="stroke:#181818;stroke-width:0.5;" width="4" x="586.3932" y="819.602"/><rect fill="#F1F1F1" height="2" style="stroke:#181818;stroke-width:0.5;" width="4" x="586.3932" y="823.602"/><text fill="#000000" font-family="sans-serif" font-size="14" lengthAdjust="spacing" textLength="212.3932" x="371" y="847.5679">BaSyx Submodel Registry Server</text></g><!--entity aas_reg_sup--><g id="elem_aas_reg_sup"><rect fill="#F1F1F1" height="49.0679" rx="2.5" ry="2.5" style="stroke:#181818;stroke-width:0.5;" width="211.3454" x="683.5" y="812.602"/><rect fill="#F1F1F1" height="10" style="stroke:#181818;stroke-width:0.5;" width="15" x="874.8454" y="817.602"/><rect fill="#F1F1F1" height="2" style="stroke:#181818;stroke-width:0.5;" width="4" x="872.8454" y="819.602"/><rect fill="#F1F1F1" height="2" style="stroke:#181818;stroke-width:0.5;" width="4" x="872.8454" y="823.602"/><text fill="#000000" font-family="sans-serif" font-size="14" lengthAdjust="spacing" textLength="171.3454" x="698.5" y="847.5679">BaSyx AAS Registry Server</text></g><!--entity aas_dis_sup--><g id="elem_aas_dis_sup"><rect fill="#F1F1F1" height="49.0679" rx="2.5" ry="2.5" style="stroke:#181818;stroke-width:0.5;" width="221.4953" x="969.5" y="812.602"/><rect fill="#F1F1F1" height="10" style="stroke:#181818;stroke-width:0.5;" width="15" x="1170.9953" y="817.602"/><rect fill="#F1F1F1" height="2" style="stroke:#181818;stroke-width:0.5;" width="4" x="1168.9953" y="819.602"/><rect fill="#F1F1F1" height="2" style="stroke:#181818;stroke-width:0.5;" width="4" x="1168.9953" y="823.602"/><text fill="#000000" font-family="sans-serif" font-size="14" lengthAdjust="spacing" textLength="181.4953" x="984.5" y="847.5679">BaSyx AAS Discovery Server</text></g><!--entity aas_env_sup--><g id="elem_aas_env_sup"><rect fill="#F1F1F1" height="49.0679" rx="2.5" ry="2.5" style="stroke:#181818;stroke-width:0.5;" width="242.5932" x="341.5" y="713.602"/><rect fill="#F1F1F1" height="10" style="stroke:#181818;stroke-width:0.5;" width="15" x="564.0932" y="718.602"/><rect fill="#F1F1F1" height="2" style="stroke:#181818;stroke-width:0.5;" width="4" x="562.0932" y="720.602"/><rect fill="#F1F1F1" height="2" style="stroke:#181818;stroke-width:0.5;" width="4" x="562.0932" y="724.602"/><text fill="#000000" font-family="sans-serif" font-size="14" lengthAdjust="spacing" textLength="202.5932" x="356.5" y="748.5679">BaSyx AAS Environment Server</text></g><!--entity nginx_sup--><g id="elem_nginx_sup"><rect fill="#F1F1F1" height="49.0679" rx="2.5" ry="2.5" style="stroke:#181818;stroke-width:0.5;" width="134.4156" x="691" y="713.602"/><rect fill="#F1F1F1" height="10" style="stroke:#181818;stroke-width:0.5;" width="15" x="805.4156" y="718.602"/><rect fill="#F1F1F1" height="2" style="stroke:#181818;stroke-width:0.5;" width="4" x="803.4156" y="720.602"/><rect fill="#F1F1F1" height="2" style="stroke:#181818;stroke-width:0.5;" width="4" x="803.4156" y="724.602"/><text fill="#000000" font-family="sans-serif" font-size="14" lengthAdjust="spacing" textLength="94.4156" x="706" y="748.5679">Proxy Registry</text></g><!--entity edc_sup--><g id="elem_edc_sup"><rect fill="#F1F1F1" height="49.0679" rx="2.5" ry="2.5" style="stroke:#181818;stroke-width:0.5;" width="231.5473" x="494" y="614.602"/><rect fill="#F1F1F1" height="10" style="stroke:#181818;stroke-width:0.5;" width="15" x="705.5473" y="619.602"/><rect fill="#F1F1F1" height="2" style="stroke:#181818;stroke-width:0.5;" width="4" x="703.5473" y="621.602"/><rect fill="#F1F1F1" height="2" style="stroke:#181818;stroke-width:0.5;" width="4" x="703.5473" y="625.602"/><text fill="#000000" font-family="sans-serif" font-size="14" lengthAdjust="spacing" textLength="191.5473" x="509" y="649.5679">Tractus-X Connector Supplier</text></g><!--entity basyx_dash_sup--><g id="elem_basyx_dash_sup"><rect fill="#F1F1F1" height="49.0679" rx="2.5" ry="2.5" style="stroke:#181818;stroke-width:0.5;" width="155.5836" x="557" y="911.602"/><rect fill="#F1F1F1" height="10" style="stroke:#181818;stroke-width:0.5;" width="15" x="692.5836" y="916.602"/><rect fill="#F1F1F1" height="2" style="stroke:#181818;stroke-width:0.5;" width="4" x="690.5836" y="918.602"/><rect fill="#F1F1F1" height="2" style="stroke:#181818;stroke-width:0.5;" width="4" x="690.5836" y="922.602"/><text fill="#000000" font-family="sans-serif" font-size="14" lengthAdjust="spacing" textLength="115.5836" x="572" y="946.5679">BaSyx Dashboard</text></g><!--link basyx_dash_cus to sm_reg_cus--><g id="link_basyx_dash_cus_sm_reg_cus"><path d="M521.78,86.892 C448.89,102.532 339.46,126.012 257.82,143.532 " fill="none" id="basyx_dash_cus-sm_reg_cus" style="stroke:#181818;stroke-width:1.0;"/></g><!--link basyx_dash_cus to aas_dis_cus--><g id="link_basyx_dash_cus_aas_dis_cus"><path d="M635.72,93.832 C658.42,108.922 687.71,128.382 710.4,143.452 " fill="none" id="basyx_dash_cus-aas_dis_cus" style="stroke:#181818;stroke-width:1.0;"/></g><!--link basyx_dash_cus to aas_reg_cus--><g id="link_basyx_dash_cus_aas_reg_cus"><path d="M564.53,93.832 C541.98,108.922 512.89,128.382 490.36,143.452 " fill="none" id="basyx_dash_cus-aas_reg_cus" style="stroke:#181818;stroke-width:1.0;"/></g><!--link basyx_dash_cus to aas_env_cus--><g id="link_basyx_dash_cus_aas_env_cus"><path d="M678.01,89.602 C765.11,111.382 894,143.602 894,143.602 C894,143.602 894,192.602 894,192.602 C894,192.602 853.11,220.952 822.12,242.442 " fill="none" id="basyx_dash_cus-aas_env_cus" style="stroke:#181818;stroke-width:1.0;"/></g><!--link aas_reg_cus to nginx_cus--><g id="link_aas_reg_cus_nginx_cus"><path d="M460.69,193.082 C464.25,208.112 468.83,227.422 472.38,242.402 " fill="none" id="aas_reg_cus-nginx_cus" style="stroke:#181818;stroke-width:1.0;"/></g><!--link aas_dis_cus to nginx_cus--><g id="link_aas_dis_cus_nginx_cus"><path d="M680.78,192.702 C638.95,207.852 584.84,227.432 543.04,242.562 " fill="none" id="aas_dis_cus-nginx_cus" style="stroke:#181818;stroke-width:1.0;"/></g><!--link sm_reg_cus to nginx_cus--><g id="link_sm_reg_cus_nginx_cus"><path d="M228.31,192.702 C284.3,209.162 358.15,230.872 410.98,246.402 " fill="none" id="sm_reg_cus-nginx_cus" style="stroke:#181818;stroke-width:1.0;"/></g><!--link nginx_cus to edc_cus--><g id="link_nginx_cus_edc_cus"><path d="M510.29,291.832 C530.75,306.862 557.11,326.232 577.59,341.282 " fill="none" id="nginx_cus-edc_cus" style="stroke:#181818;stroke-width:1.0;"/></g><!--link aas_env_cus to edc_cus--><g id="link_aas_env_cus_edc_cus"><path d="M744.46,291.832 C716.77,306.922 681.06,326.382 653.4,341.452 " fill="none" id="aas_env_cus-edc_cus" style="stroke:#181818;stroke-width:1.0;"/></g><!--link edc_sup to nginx_sup--><g id="link_edc_sup_nginx_sup"><path d="M646.2,663.832 C669.22,678.922 698.92,698.382 721.91,713.452 " fill="none" id="edc_sup-nginx_sup" style="stroke:#181818;stroke-width:1.0;"/></g><!--link edc_sup to aas_env_sup--><g id="link_edc_sup_aas_env_sup"><path d="M574.04,663.832 C551.18,678.922 521.69,698.382 498.84,713.452 " fill="none" id="edc_sup-aas_env_sup" style="stroke:#181818;stroke-width:1.0;"/></g><!--link nginx_sup to aas_reg_sup--><g id="link_nginx_sup_aas_reg_sup"><path d="M765.66,763.082 C770.47,778.112 776.64,797.422 781.43,812.402 " fill="none" id="nginx_sup-aas_reg_sup" style="stroke:#181818;stroke-width:1.0;"/></g><!--link nginx_sup to aas_dis_sup--><g id="link_nginx_sup_aas_dis_sup"><path d="M825.11,759.322 C876.63,774.842 947.86,796.292 1001.92,812.582 " fill="none" id="nginx_sup-aas_dis_sup" style="stroke:#181818;stroke-width:1.0;"/></g><!--link nginx_sup to sm_reg_sup--><g id="link_nginx_sup_sm_reg_sup"><path d="M690.84,762.702 C647.75,777.852 592.03,797.432 548.99,812.562 " fill="none" id="nginx_sup-sm_reg_sup" style="stroke:#181818;stroke-width:1.0;"/></g><!--link sm_reg_sup to basyx_dash_sup--><g id="link_sm_reg_sup_basyx_dash_sup"><path d="M519.43,861.832 C543.23,876.922 573.92,896.382 597.69,911.452 " fill="none" id="sm_reg_sup-basyx_dash_sup" style="stroke:#181818;stroke-width:1.0;"/></g><!--link aas_dis_sup to basyx_dash_sup--><g id="link_aas_dis_sup_basyx_dash_sup"><path d="M971.99,861.642 C891.99,879.082 784.84,902.442 713.04,918.092 " fill="none" id="aas_dis_sup-basyx_dash_sup" style="stroke:#181818;stroke-width:1.0;"/></g><!--link aas_reg_sup to basyx_dash_sup--><g id="link_aas_reg_sup_basyx_dash_sup"><path d="M751.33,861.832 C727.37,876.922 696.48,896.382 672.55,911.452 " fill="none" id="aas_reg_sup-basyx_dash_sup" style="stroke:#181818;stroke-width:1.0;"/></g><!--link aas_env_sup to basyx_dash_sup--><g id="link_aas_env_sup_basyx_dash_sup"><path d="M416.32,762.762 C373.93,784.252 318,812.602 318,812.602 C318,812.602 318,861.602 318,861.602 C318,861.602 462.77,895.172 556.64,916.932 " fill="none" id="aas_env_sup-basyx_dash_sup" style="stroke:#181818;stroke-width:1.0;"/></g><!--link edc_cus to miw--><g id="link_edc_cus_miw"><path d="M610,390.842 C610,412.402 610,444.442 610,468.522 " fill="none" id="edc_cus-miw" style="stroke:#181818;stroke-width:1.0;"/></g><!--link edc_cus to bdrs--><g id="link_edc_cus_bdrs"><path d="M551.48,390.642 C513.86,405.762 472,422.602 472,422.602 C472,422.602 411.19,454.632 367,477.902 " fill="none" id="edc_cus-bdrs" style="stroke:#181818;stroke-width:1.0;"/></g><!--link miw to edc_sup--><g id="link_miw_edc_sup"><path d="M610,536.852 C610,560.962 610,592.992 610,614.522 " fill="none" id="miw-edc_sup" style="stroke:#181818;stroke-width:1.0;"/></g><!--link bdrs to edc_sup--><g id="link_bdrs_edc_sup"><path d="M372.5,527.182 C425.09,551.742 506.99,589.992 559.56,614.552 " fill="none" id="bdrs-edc_sup" style="stroke:#181818;stroke-width:1.0;"/></g><!--link edc_cus to edc_sup--><g id="link_edc_cus_edc_sup"><path d="M663.86,390.642 C698.47,405.762 737,422.602 737,422.602 C737,422.602 737,560.602 737,560.602 C737,560.602 686.14,591.642 648.79,614.432 " fill="none" id="edc_cus-edc_sup" style="stroke:#181818;stroke-width:1.0;"/></g><!--SRC=[bLF9JiCm5BpdAvwuL-9ISIvj3vKeL0I9Ie0grxQ2bSIsRASaGlmxTbPdAIr7lvbvIsQYOyObKYY5X75g2ab1YgHmZq2t61U4QYhXRkuL5UAnAyvlWq0Y7AE8mitJUdi3tq40y7QFmYA75TAVHu4K-G2auOXqaH-8hHrmfZrQc1rJEoI1PnenRLG18LKdgagLJW-AHgMY5ImMuIGN8JrDNZ6DXMMDs8JfCNlDJqm9db9kXdpAJpNVINPAv4MxIKdY4UDvSr__OfZD-jUCuVvAq_WbVMz5J-3mRZlmPmsXRiiXugv-KGYRJC_si1ISKso40cjzUJubk6EsGjUbGxmbVI3uyQAqt3T9sY9kAmGsnDh1J06lA4ceUUTRWMFOBAgvAVigFTmzFbYpYVL4YoGpJF3IGOPf5K6Y1eF2JCg4KUN6_IkGEfFN1t94_ZEG8_Q5GDRyisbq-3dZcljRzwfcfN_riyj0XNbbVuChVljAtoR3Qz9zf17KVP4UrBEXosoDZePwdSxYb_JrfHEuYrITOuUwD7hFAdMssCJTILpHV_k2flOB]--></g></svg>